HIERARCHY
ROOT Hips
{
 OFFSET 0.000000 0.000000 0.000000
 CHANNELS 6 Xposition Yposition Zposition Yrotation Xrotation Zrotation
 JOINT Chest
 {
  OFFSET 0.000000 9.585900 0.002600
  CHANNELS 3 Yrotation Xrotation Zrotation
  JOINT Chest2
  {
   OFFSET 0.000000 9.601200 -0.005300
   CHANNELS 3 Yrotation Xrotation Zrotation
   JOINT Chest3
   {
    OFFSET 0.000000 9.561800 0.000000
    CHANNELS 3 Yrotation Xrotation Zrotation
    JOINT Chest4
    {
     OFFSET 0.000000 9.552100 0.000000
     CHANNELS 3 Yrotation Xrotation Zrotation
     JOINT Neck
     {
      OFFSET 0.000000 14.453000 0.000000
      CHANNELS 3 Yrotation Xrotation Zrotation
      JOINT Head
      {
       OFFSET 0.000000 8.936500 -0.011300
       CHANNELS 3 Yrotation Xrotation Zrotation
       End Site
       {
        OFFSET 0.000000 17.073600 -0.006000
       }
      }
     }
     JOINT RightCollar
     {
      OFFSET -2.921100 9.558500 0.000000
      CHANNELS 3 Yrotation Xrotation Zrotation
      JOINT RightShoulder
      {
       OFFSET -13.519700 0.000000 0.000000
       CHANNELS 3 Yrotation Xrotation Zrotation
       JOINT RightElbow
       {
        OFFSET 0.000000 -29.696600 0.000000
        CHANNELS 3 Yrotation Xrotation Zrotation
        JOINT RightWrist
        {
         OFFSET 0.000000 -24.004700 0.000000
         CHANNELS 3 Yrotation Xrotation Zrotation
         End Site
         {
          OFFSET 0.000000 -17.728500 0.000000
         }
        }
       }
      }
     }
     JOINT LeftCollar
     {
      OFFSET 2.921100 9.558500 0.000000
      CHANNELS 3 Yrotation Xrotation Zrotation
      JOINT LeftShoulder
      {
       OFFSET 13.519700 0.000000 0.000000
       CHANNELS 3 Yrotation Xrotation Zrotation
       JOINT LeftElbow
       {
        OFFSET 0.000000 -29.696600 0.000000
        CHANNELS 3 Yrotation Xrotation Zrotation
        JOINT LeftWrist
        {
         OFFSET 0.000000 -24.004700 0.000000
         CHANNELS 3 Yrotation Xrotation Zrotation
         End Site
         {
          OFFSET 0.000000 -17.728500 0.000000
         }
        }
       }
      }
     }
    }
   }
  }
 }
 JOINT RightHip
 {
  OFFSET -7.771700 -0.012900 -0.001300
  CHANNELS 3 Yrotation Xrotation Zrotation
  JOINT RightKnee
  {
   OFFSET 0.000000 -40.869800 0.001200
   CHANNELS 3 Yrotation Xrotation Zrotation
   JOINT RightAnkle
   {
    OFFSET 0.000000 -39.717900 0.002100
    CHANNELS 3 Yrotation Xrotation Zrotation
    JOINT RightToe
    {
     OFFSET 0.000000 -4.965400 11.033500
     CHANNELS 3 Yrotation Xrotation Zrotation
     End Site
     {
      OFFSET 0.000000 -1.423100 5.872300
     }
    }
   }
  }
 }
 JOINT LeftHip
 {
  OFFSET 7.771700 -0.012900 -0.001300
  CHANNELS 3 Yrotation Xrotation Zrotation
  JOINT LeftKnee
  {
   OFFSET 0.000000 -40.869800 0.001200
   CHANNELS 3 Yrotation Xrotation Zrotation
   JOINT LeftAnkle
   {
    OFFSET 0.000000 -39.717900 0.002100
    CHANNELS 3 Yrotation Xrotation Zrotation
    JOINT LeftToe
    {
     OFFSET 0.000000 -4.965400 11.033500
     CHANNELS 3 Yrotation Xrotation Zrotation
     End Site
     {
      OFFSET 0.000000 -1.423100 5.872300
     }
    }
   }
  }
 }
}
MOTION
Frames: 5
Frame Time: 0.008333
-38.652036 50.622578 17.610915 165.415300 -8.375254 -0.229958 1.725563 7.360271 1.117102 0.069458 0.334248 0.017166 0.124424 0.586355 0.025610 1.487574 6.997753 0.447653 3.632175 19.335326 0.235903 6.557833 0.175957 -0.697698 2.473274 3.006562 -0.075455 5.272608 -13.506753 -10.758149 47.977138 -46.947764 -25.213211 6.126337 16.554001 -37.912716 -6.070008 -1.182730 -0.462179 -1.392449 -12.902074 13.406848 -47.072187 -46.868089 20.953525 -0.970382 4.932217 34.012848 -9.938863 -71.529965 3.025903 -131.564295 80.807922 -130.634118 -3.344136 -17.888341 -1.065571 -0.175283 0.658731 -0.080872 -4.777895 -76.298081 21.553899 98.352002 78.477894 94.198679 -15.660375 -22.775841 2.526723 -0.267460 -0.857429 -0.123036
-38.650939 50.621678 17.611965 165.380717 -8.369133 -0.234268 1.763791 7.354334 1.120188 0.069816 0.334600 0.017254 0.122211 0.585687 0.030399 1.488959 6.998304 0.447497 3.628933 19.335107 0.233736 6.537890 0.173926 -0.699054 2.470195 3.000705 -0.080762 5.270896 -13.511513 -10.752542 47.958864 -46.924797 -25.191059 6.129227 16.537914 -37.912153 -6.084101 -1.184993 -0.459300 -1.385711 -12.901097 13.406720 -47.068251 -46.867172 20.953105 -0.966670 4.933650 34.014021 -9.942044 -71.533981 3.064164 -131.565129 80.808522 -130.633429 -3.317051 -17.938343 -1.065752 -0.201888 0.705732 -0.091911 -4.762996 -76.306072 21.572322 98.375039 78.486990 94.234446 -15.623468 -22.752956 2.533015 -0.304984 -0.889943 -0.146018
-38.647465 50.621149 17.609645 165.359583 -8.385616 -0.249009 1.787525 7.373422 1.129060 0.067616 0.332713 0.021876 0.122463 0.585988 0.030011 1.491314 6.999785 0.443087 3.621777 19.333302 0.233223 6.525800 0.172510 -0.696726 2.470720 2.991487 -0.078142 5.271166 -13.513631 -10.746535 47.936096 -46.902947 -25.170720 6.133411 16.520377 -37.912025 -6.094328 -1.192196 -0.447761 -1.397384 -12.895781 13.409801 -47.051671 -46.871291 20.951412 -0.966069 4.932419 34.009421 -9.991301 -71.514177 3.134177 -131.546844 80.806916 -130.617572 -3.311429 -17.937140 -1.070555 -0.205244 0.701268 -0.092738 -4.795284 -76.295012 21.617006 98.452620 78.497186 94.334516 -15.576459 -22.789559 2.524850 -0.287094 -0.879959 -0.150084
-38.646593 50.620126 17.608391 165.356108 -8.391179 -0.252773 1.792933 7.379842 1.129546 0.069328 0.334061 0.020509 0.123672 0.587413 0.024978 1.491612 7.000371 0.441660 3.614641 19.331643 0.234488 6.512871 0.171394 -0.693717 2.475287 2.975575 -0.080229 5.261912 -13.507581 -10.731072 47.918065 -46.884697 -25.157892 6.136504 16.502438 -37.911710 -6.112104 -1.197609 -0.435215 -1.406242 -12.900194 13.411295 -47.056395 -46.873679 20.945598 -0.961441 4.940921 34.014807 -10.019211 -71.508311 3.166536 -131.537541 80.803076 -130.611619 -3.318619 -17.940256 -1.071136 -0.199068 0.700166 -0.091773 -4.806901 -76.289506 21.630943 98.489210 78.510090 94.379518 -15.567743 -22.823630 2.526818 -0.276330 -0.884498 -0.143216
-38.645398 50.618543 17.609096 165.348546 -8.385073 -0.260895 1.801637 7.372280 1.134494 0.069963 0.336580 0.020609 0.123552 0.586310 0.026773 1.494910 7.002700 0.422945 3.601775 19.333103 0.234138 6.510670 0.169396 -0.684834 2.479668 2.957496 -0.074233 5.253227 -13.498346 -10.714009 47.901056 -46.867146 -25.146577 6.136347 16.489103 -37.918131 -6.127006 -1.199759 -0.413847 -1.414470 -12.906249 13.415868 -47.046988 -46.868585 20.936907 -0.972399 4.928992 34.003992 -10.061313 -71.513701 3.213002 -131.512349 80.799678 -130.582915 -3.315295 -17.939318 -1.082110 -0.194282 0.698799 -0.088632 -4.862820 -76.295403 21.689475 98.526440 78.512475 94.418072 -15.553789 -22.857585 2.536639 -0.290143 -0.874172 -0.155580
